<?xml version="1.0" encoding="UTF-8"?>
<svg width="10px" height="15px" viewBox="0 0 10 15" version="1.1" xmlns="http://www.w3.org/2000/svg" xmlns:xlink="http://www.w3.org/1999/xlink">
    <!-- Generator: Sketch 41.2 (35397) - http://www.bohemiancoding.com/sketch -->
    <title>address_sm_icon</title>
    <desc>Created with Sketch.</desc>
    <defs></defs>
    <g id="COLOR" stroke="none" stroke-width="1" fill="none" fill-rule="evenodd">
        <g id="MYACCOUNT-v3" transform="translate(-1089.000000, -475.000000)" fill="#000000">
            <g id="address_sm_icon" transform="translate(1089.000000, 475.000000)">
                <path d="M7.5,5 C7.5,4.30989583 7.25585938,3.72070313 6.76757812,3.23242188 C6.27929688,2.74414063 5.69010417,2.5 5,2.5 C4.30989583,2.5 3.72070312,2.74414063 3.23242188,3.23242188 C2.74414062,3.72070313 2.5,4.30989583 2.5,5 C2.5,5.69010417 2.74414062,6.27929688 3.23242188,6.76757813 C3.72070312,7.25585938 4.30989583,7.5 5,7.5 C5.69010417,7.5 6.27929688,7.25585938 6.76757812,6.76757813 C7.25585938,6.27929688 7.5,5.69010417 7.5,5 Z M10,5 C10,5.70963542 9.89257812,6.29231771 9.67773438,6.74804688 L6.12304688,14.3066406 C6.01888021,14.5214844 5.86425781,14.6907552 5.65917969,14.8144531 C5.45410156,14.938151 5.234375,15 5,15 C4.765625,15 4.54589844,14.938151 4.34082031,14.8144531 C4.13574219,14.6907552 3.984375,14.5214844 3.88671875,14.3066406 L0.322265625,6.74804688 C0.107421875,6.29231771 0,5.70963542 0,5 C0,3.61979167 0.48828125,2.44140625 1.46484375,1.46484375 C2.44140625,0.48828125 3.61979167,0 5,0 C6.38020833,0 7.55859375,0.48828125 8.53515625,1.46484375 C9.51171875,2.44140625 10,3.61979167 10,5 Z" id="Shape"></path>
            </g>
        </g>
    </g>
</svg>