<?xml version="1.0" encoding="UTF-8"?>
<svg width="15px" height="15px" viewBox="0 0 15 15" version="1.1" xmlns="http://www.w3.org/2000/svg" xmlns:xlink="http://www.w3.org/1999/xlink">
    <!-- Generator: Sketch 41.2 (35397) - http://www.bohemiancoding.com/sketch -->
    <title>phone_sm_icon</title>
    <desc>Created with Sketch.</desc>
    <defs></defs>
    <g id="COLOR" stroke="none" stroke-width="1" fill="none" fill-rule="evenodd">
        <g id="MYACCOUNT-v3" transform="translate(-1086.000000, -451.000000)" fill="#000000">
            <g id="phone_sm_icon" transform="translate(1086.000000, 451.000000)">
                <path d="M12.5,10.4003906 C12.5,10.328776 12.4934896,10.2766927 12.4804688,10.2441406 C12.4609375,10.1920573 12.335612,10.0960286 12.1044922,9.95605469 C11.8733724,9.81608073 11.5852865,9.65494792 11.2402344,9.47265625 L10.7226562,9.18945313 C10.6901042,9.16992188 10.6282552,9.12760417 10.5371094,9.0625 C10.4459635,8.99739583 10.3645833,8.94856771 10.2929688,8.91601563 C10.2213542,8.88346354 10.1529948,8.8671875 10.0878906,8.8671875 C9.97070312,8.8671875 9.81770833,8.97298177 9.62890625,9.18457031 C9.44010417,9.39615886 9.25455729,9.609375 9.07226562,9.82421875 C8.88997396,10.0390625 8.74674479,10.1464844 8.64257812,10.1464844 C8.59700521,10.1464844 8.54329427,10.1350911 8.48144531,10.1123047 C8.41959636,10.0895182 8.36914062,10.0683594 8.33007812,10.0488281 C8.29101562,10.0292969 8.23567708,9.99837239 8.1640625,9.95605469 C8.09244792,9.91373698 8.046875,9.88606771 8.02734375,9.87304688 C7.3828125,9.51497396 6.82779948,9.10319011 6.36230469,8.63769531 C5.89680989,8.17220052 5.48502604,7.6171875 5.12695312,6.97265625 C5.11393229,6.953125 5.08626302,6.90755208 5.04394531,6.8359375 C5.00162761,6.76432292 4.97070312,6.70898438 4.95117188,6.66992188 C4.93164062,6.63085938 4.91048177,6.58040364 4.88769531,6.51855469 C4.86490886,6.45670573 4.85351562,6.40299479 4.85351562,6.35742188 C4.85351562,6.27278646 4.92024739,6.16373698 5.05371094,6.03027344 C5.18717448,5.89680989 5.33365886,5.77148438 5.49316406,5.65429688 C5.65266927,5.53710938 5.79915364,5.40852864 5.93261719,5.26855469 C6.06608073,5.12858073 6.1328125,5.00976563 6.1328125,4.91210938 C6.1328125,4.84700521 6.11653646,4.77864583 6.08398438,4.70703125 C6.05143229,4.63541667 6.00260417,4.55403646 5.9375,4.46289063 C5.87239583,4.37174479 5.83007812,4.30989583 5.81054688,4.27734375 C5.79101562,4.23828125 5.7421875,4.14550781 5.6640625,3.99902344 C5.5859375,3.85253906 5.50455729,3.70442708 5.41992188,3.5546875 C5.33528646,3.40494792 5.24902344,3.25032552 5.16113281,3.09082031 C5.07324219,2.93131511 4.99186198,2.79947917 4.91699219,2.6953125 C4.84212239,2.59114583 4.78841146,2.53255208 4.75585938,2.51953125 C4.72330729,2.50651042 4.67122396,2.5 4.59960938,2.5 C4.28710938,2.5 3.95833333,2.57161458 3.61328125,2.71484375 C3.31380208,2.8515625 3.05338542,3.15917969 2.83203125,3.63769531 C2.61067708,4.11621094 2.5,4.54101563 2.5,4.91210938 C2.5,5.01627604 2.50813802,5.12695313 2.52441406,5.24414063 C2.54069011,5.36132813 2.55696614,5.46061198 2.57324219,5.54199219 C2.58951823,5.62337239 2.61881511,5.73079427 2.66113281,5.86425781 C2.70345052,5.99772136 2.73600261,6.09375 2.75878906,6.15234375 C2.78157552,6.2109375 2.82226562,6.31835938 2.88085938,6.47460938 C2.93945312,6.63085938 2.97526042,6.72851563 2.98828125,6.76757813 C3.37890625,7.83528646 4.08365886,8.87858073 5.10253906,9.89746094 C6.12141927,10.9163411 7.16471354,11.6210938 8.23242188,12.0117188 C8.27148438,12.0247396 8.36914062,12.0605469 8.52539062,12.1191406 C8.68164062,12.1777344 8.7890625,12.2184245 8.84765625,12.2412109 C8.90625,12.2639974 9.00227864,12.2965495 9.13574219,12.3388672 C9.26920573,12.3811849 9.37662761,12.4104818 9.45800781,12.4267578 C9.53938802,12.4430339 9.63867188,12.4593099 9.75585938,12.4755859 C9.87304688,12.491862 9.98372396,12.5 10.0878906,12.5 C10.4589844,12.5 10.8837891,12.3893229 11.3623047,12.1679688 C11.8408203,11.9466146 12.1484375,11.6861979 12.2851562,11.3867188 C12.4283854,11.0416667 12.5,10.7128906 12.5,10.4003906 Z M15,2.8125 L15,12.1875 C15,12.9622396 14.7249349,13.6246745 14.1748047,14.1748047 C13.6246745,14.7249349 12.9622396,15 12.1875,15 L2.8125,15 C2.03776042,15 1.37532552,14.7249349 0.825195312,14.1748047 C0.275065107,13.6246745 0,12.9622396 0,12.1875 L0,2.8125 C0,2.03776042 0.275065107,1.37532552 0.825195312,0.825195313 C1.37532552,0.275065107 2.03776042,0 2.8125,0 L12.1875,0 C12.9622396,0 13.6246745,0.275065107 14.1748047,0.825195313 C14.7249349,1.37532552 15,2.03776042 15,2.8125 Z" id="Shape"></path>
            </g>
        </g>
    </g>
</svg>