<?xml version="1.0" encoding="UTF-8"?>
<svg width="15px" height="18px" viewBox="0 0 15 18" version="1.1" xmlns="http://www.w3.org/2000/svg" xmlns:xlink="http://www.w3.org/1999/xlink">
    <!-- Generator: Sketch 41.2 (35397) - http://www.bohemiancoding.com/sketch -->
    <title>shipping_sm_icon</title>
    <desc>Created with Sketch.</desc>
    <defs></defs>
    <g id="COLOR" stroke="none" stroke-width="1" fill="none" fill-rule="evenodd">
        <g id="MYACCOUNT-v3" transform="translate(-1086.000000, -510.000000)" fill="#000000">
            <g id="shipping_sm_icon" transform="translate(1086.000000, 510.000000)">
                <g id="location-2">
                    <g id="Page-1">
                        <g id="Icon-Set-Filled">
                            <path d="M14.2890087,6.79196026 L12.6332461,3.49043638 C12.514898,3.37208826 12.3576561,3.32374888 12.2026367,3.33375013 L1.11125004,3.33375013 C0.497840019,3.33375013 0,3.83159015 0,4.44500017 L0,10.0012504 C0,10.6146604 0.497840019,11.1125004 1.11125004,11.1125004 L12.2237505,11.0991654 C12.2237505,11.0991654 12.5204542,11.0513817 12.6332461,10.9391454 L14.2890087,7.63706592 C14.4140243,7.40370341 14.4306931,7.32758278 14.4473618,7.21423528 C14.4551406,7.06254965 14.4056899,7.00309777 14.2890087,6.79196026 L14.2890087,6.79196026 Z M3.33375013,15.5575006 C3.33375013,16.7848763 4.32887454,17.7800007 5.55625021,17.7800007 L6.66750026,17.7800007 C7.89487593,17.7800007 8.89000034,16.7848763 8.89000034,15.5575006 L8.89000034,12.2237505 L3.33375013,12.2237505 L3.33375013,15.5575006 L3.33375013,15.5575006 Z M6.66750026,0 L5.55625021,0 C4.32887454,0 3.33375013,0.995124413 3.33375013,2.22250009 L8.89000034,2.22250009 C8.89000034,0.995124413 7.89487593,0 6.66750026,0 L6.66750026,0 Z" id="location-2"></path>
                        </g>
                    </g>
                </g>
            </g>
        </g>
    </g>
</svg>