<?xml version="1.0" encoding="UTF-8"?>
<svg width="15px" height="17px" viewBox="0 0 15 17" version="1.1" xmlns="http://www.w3.org/2000/svg" xmlns:xlink="http://www.w3.org/1999/xlink">
    <!-- Generator: Sketch 41.2 (35397) - http://www.bohemiancoding.com/sketch -->
    <title>user_sm_icon</title>
    <desc>Created with Sketch.</desc>
    <defs></defs>
    <g id="COLOR" stroke="none" stroke-width="1" fill="none" fill-rule="evenodd">
        <g id="MYACCOUNT-v3" transform="translate(-1086.000000, -425.000000)" fill="#000000">
            <g id="user_sm_icon" transform="translate(1086.000000, 425.000000)">
                <path d="M14.9966672,13.6013807 C14.9966672,14.4534641 14.7374919,15.1262549 14.2191412,15.6197532 C13.7007904,16.1132515 13.0120231,16.3600006 12.152839,16.3600006 L2.84382823,16.3600006 C1.98464417,16.3600006 1.29587679,16.1132515 0.777526071,15.6197532 C0.259175353,15.1262549 0,14.4534641 0,13.6013807 C0,13.2250439 0.0124262193,12.8575829 0.0372786472,12.4989979 C0.0621310752,12.1404128 0.111835942,11.7534249 0.186393236,11.3380343 C0.260950531,10.9226436 0.355034732,10.5374309 0.468645851,10.1823962 C0.58225697,9.82736148 0.734921902,9.48120261 0.92664066,9.14391961 C1.11835942,8.80663661 1.33848096,8.51905847 1.58700527,8.2811852 C1.83552958,8.04331194 2.13908428,7.85336834 2.49766936,7.71135445 C2.85625445,7.56934056 3.25211817,7.49833361 3.68526055,7.49833361 C3.74916681,7.49833361 3.8982814,7.57466608 4.13260432,7.72733102 C4.36692725,7.87999595 4.63142812,8.05041262 4.92610695,8.23858104 C5.22078579,8.42674945 5.6042233,8.59716612 6.0764195,8.74983106 C6.54861569,8.90249599 7.02258706,8.97882846 7.49833361,8.97882846 C7.97408016,8.97882846 8.44805153,8.90249599 8.92024773,8.74983106 C9.39244392,8.59716612 9.77588144,8.42674945 10.0705603,8.23858104 C10.3652391,8.05041262 10.62974,7.87999595 10.8640629,7.72733102 C11.0983858,7.57466608 11.2475004,7.49833361 11.3114067,7.49833361 C11.7445491,7.49833361 12.1404128,7.56934056 12.4989979,7.71135445 C12.8575829,7.85336834 13.1611376,8.04331194 13.409662,8.2811852 C13.6581863,8.51905847 13.8783078,8.80663661 14.0700266,9.14391961 C14.2617453,9.48120261 14.4144103,9.82736148 14.5280214,10.1823962 C14.6416325,10.5374309 14.7357167,10.9226436 14.810274,11.3380343 C14.8848313,11.7534249 14.9345362,12.1404128 14.9593886,12.4989979 C14.984241,12.8575829 14.9966672,13.2250439 14.9966672,13.6013807 Z M11.5883338,4.09000015 C11.5883338,5.21901061 11.1889197,6.18292992 10.3900915,6.98175807 C9.59126338,7.78058623 8.62734407,8.18000031 7.49833361,8.18000031 C6.36932315,8.18000031 5.40540385,7.78058623 4.60657569,6.98175807 C3.80774754,6.18292992 3.40833346,5.21901061 3.40833346,4.09000015 C3.40833346,2.96098969 3.80774754,1.99707039 4.60657569,1.19824223 C5.40540385,0.399414077 6.36932315,0 7.49833361,0 C8.62734407,0 9.59126338,0.399414077 10.3900915,1.19824223 C11.1889197,1.99707039 11.5883338,2.96098969 11.5883338,4.09000015 Z" id="Shape"></path>
            </g>
        </g>
    </g>
</svg>